# xmcd
#
# Track frame offsets:
#	150
#	17289
#	34885
#	51971
#	68538
#	81470
#	99009
#	114212
#	130164
#	145835
#	160616
#	172885
#
# Disc length: 2528 seconds
#
# Revision: 0
# Processed by: cddbd v1.5.2PL0 Copyright (c) Steve Scherf et al.
# Submitted via: audiograbber 1.83.01
#
DISCID=8709de0c
DTITLE=Various Artist - CDX 529
DYEAR=2011
DGENRE=Country
TTITLE0=Ty Stone - American Style 
TTITLE1=Blake Shelton - God Gave Me You
TTITLE2=Danny Gokey - Second Hand Heart 
TTITLE3=Tyler Dean - That Smile
TTITLE4=Andy Gibson - Wanna Make You Love Me 
TTITLE5=Jeff Bates - He Wasn't Like Us
TTITLE6=Darren Hincks - Another Beer And A Shot 
TTITLE7=Vince Hatfield - Beautiful Girl 
TTITLE8=Colton James - Date With Dixie
TTITLE9=Denae Gardner - Heartache Train
TTITLE10=Clay Dustin - Ill Take That Job 
TTITLE11=Acklen Park - Lost 
EXTD=
EXTT0=
EXTT1=
EXTT2=
EXTT3=
EXTT4=
EXTT5=
EXTT6=
EXTT7=
EXTT8=
EXTT9=
EXTT10=
EXTT11=
PLAYORDER=
